<?xml version="1.0" encoding="UTF-8"?>
<svg id="Logos" xmlns="http://www.w3.org/2000/svg" viewBox="0 0 150 150">
  <defs>
    <style>
      .cls-1 {
        fill: #fff;
      }

      .cls-1, .cls-2, .cls-3 {
        stroke: #c8102e;
        stroke-miterlimit: 10;
      }

      .cls-1, .cls-3 {
        stroke-width: 2px;
      }

      .cls-2 {
        fill: none;
        stroke-width: 1.25px;
      }

      .cls-3, .cls-4 {
        fill: #c8102e;
      }

      .cls-5 {
        fill: #50595e;
      }

      .cls-6 {
        fill: #20282f;
      }
    </style>
  </defs>
  <g id="Certification_Pressed_Med-Large_Text" data-name="Certification / Pressed / Med-Large Text">
    <path class="cls-3" d="M75,11.75C38.17,11.75,8.32,41.61,8.32,78.43c0,18.37,7.43,35,19.45,47.06,1.71-1.56,3.5-3.03,5.36-4.42-11.05-10.84-17.91-25.94-17.91-42.64,0-33.01,26.76-59.78,59.78-59.78s59.78,26.76,59.78,59.78c0,16.71-6.86,31.8-17.91,42.64,1.86,1.39,3.65,2.86,5.36,4.42,12.02-12.06,19.45-28.69,19.45-47.06,0-36.83-29.85-66.68-66.68-66.68Z"/>
    <circle class="cls-1" cx="75" cy="78.58" r="59.67"/>
    <g>
      <path class="cls-5" d="M48.96,119.83v-7.27h2.73c.56,0,1.03.1,1.41.31.38.21.67.5.86.86s.29.78.29,1.24-.1.88-.29,1.24c-.2.36-.49.65-.87.85-.38.21-.86.31-1.42.31h-1.81v-1.08h1.63c.33,0,.59-.06.8-.17.21-.11.36-.27.46-.47.1-.2.15-.43.15-.69s-.05-.49-.15-.68-.26-.35-.46-.46c-.21-.11-.48-.17-.81-.17h-1.21v6.17h-1.32Z"/>
      <path class="cls-5" d="M56.63,112.55v7.27h-1.29v-7.27h1.29Z"/>
      <path class="cls-5" d="M61.43,117.53v-3.16h1.29v5.46h-1.25v-.97h-.06c-.12.31-.32.56-.61.75-.28.19-.62.29-1.04.29-.36,0-.67-.08-.95-.24s-.49-.39-.64-.7c-.15-.31-.23-.68-.23-1.11v-3.47h1.29v3.27c0,.35.09.62.28.82.19.2.44.3.75.3.19,0,.37-.05.55-.14.18-.09.32-.23.44-.41.12-.18.17-.41.17-.69Z"/>
      <path class="cls-5" d="M68.34,115.81l-1.17.13c-.03-.12-.09-.23-.17-.33-.08-.1-.19-.19-.33-.25-.14-.06-.31-.1-.5-.1-.27,0-.49.06-.67.17-.18.12-.27.27-.27.45,0,.16.06.29.18.39.12.1.32.18.59.25l.93.2c.52.11.9.29,1.15.53s.38.56.38.95c0,.34-.1.65-.3.91s-.47.47-.82.61c-.35.15-.75.22-1.21.22-.67,0-1.21-.14-1.61-.42s-.65-.67-.73-1.17l1.25-.12c.06.25.18.43.36.56.18.13.42.19.72.19s.55-.06.74-.19c.19-.12.28-.28.28-.46,0-.16-.06-.29-.18-.39-.12-.1-.3-.18-.56-.23l-.93-.2c-.52-.11-.91-.29-1.16-.55-.25-.26-.38-.59-.37-.99,0-.34.09-.63.28-.88.19-.25.44-.44.78-.58.33-.14.72-.2,1.15-.2.64,0,1.14.14,1.51.41.37.27.6.64.68,1.1Z"/>
      <path class="cls-5" d="M76.01,114.55c-.03-.31-.17-.55-.42-.72-.25-.17-.56-.26-.95-.26-.27,0-.51.04-.71.12-.2.08-.35.2-.45.34-.1.14-.16.3-.16.49,0,.15.04.28.11.39.07.11.16.21.29.28s.25.14.4.19c.15.05.29.1.44.13l.68.17c.27.06.54.15.79.26.25.11.48.25.69.41.2.17.36.37.48.6s.18.51.18.82c0,.43-.11.8-.33,1.12-.22.32-.53.58-.94.76-.41.18-.91.27-1.49.27s-1.06-.09-1.47-.26c-.42-.17-.74-.43-.97-.77-.23-.34-.36-.75-.38-1.23h1.3c.02.25.1.46.23.63.14.17.32.29.54.38.22.08.47.12.74.12s.54-.04.75-.13c.22-.09.39-.21.51-.36s.19-.34.19-.54c0-.19-.06-.35-.17-.47s-.26-.23-.46-.31-.42-.16-.68-.23l-.83-.21c-.6-.15-1.07-.39-1.42-.7-.35-.31-.52-.73-.52-1.25,0-.43.12-.8.35-1.13.23-.32.55-.57.95-.75.4-.18.86-.27,1.37-.27s.97.09,1.36.27c.39.18.7.43.92.74.22.32.34.68.34,1.09h-1.27Z"/>
      <path class="cls-5" d="M80.91,119.93c-.55,0-1.02-.11-1.42-.34s-.7-.55-.91-.97c-.21-.42-.32-.92-.32-1.49s.11-1.05.32-1.48.51-.76.9-.99c.39-.24.84-.36,1.36-.36.34,0,.65.05.95.16s.56.27.8.5c.23.22.41.51.54.86s.2.76.2,1.24v.39h-4.47v-.87h3.24c0-.25-.06-.47-.16-.66-.1-.19-.25-.34-.44-.46s-.4-.17-.65-.17c-.26,0-.49.06-.69.19-.2.13-.35.29-.46.5-.11.2-.17.43-.17.67v.76c0,.32.06.59.17.82.12.23.28.4.49.52.21.12.45.18.73.18.19,0,.36-.03.51-.08.15-.05.28-.13.39-.24.11-.1.2-.23.25-.39l1.2.14c-.08.32-.22.59-.43.83-.21.24-.48.42-.81.55s-.71.19-1.13.19Z"/>
      <path class="cls-5" d="M84.42,119.83v-5.46h1.25v.91h.06c.1-.31.27-.56.51-.73s.52-.26.83-.26c.07,0,.15,0,.24,0s.16.02.22.03v1.18c-.05-.02-.14-.04-.26-.05s-.23-.02-.34-.02c-.23,0-.44.05-.63.15-.19.1-.33.24-.44.42s-.16.38-.16.61v3.21h-1.29Z"/>
      <path class="cls-5" d="M89.04,113.6c-.2,0-.38-.07-.53-.21-.15-.14-.22-.3-.22-.49s.07-.36.22-.5c.15-.14.32-.21.53-.21s.38.07.53.21c.15.14.22.3.22.5s-.07.36-.22.49c-.15.14-.32.21-.53.21ZM88.39,119.83v-5.46h1.29v5.46h-1.29Z"/>
      <path class="cls-5" d="M93.41,119.93c-.55,0-1.02-.11-1.42-.34s-.7-.55-.91-.97c-.21-.42-.32-.92-.32-1.49s.11-1.05.32-1.48c.21-.42.51-.76.9-.99.38-.24.84-.36,1.36-.36.34,0,.65.05.95.16.3.11.56.27.8.5s.41.51.54.86c.13.35.2.76.2,1.24v.39h-4.47v-.87h3.24c0-.25-.06-.47-.16-.66-.11-.19-.25-.34-.44-.46s-.4-.17-.65-.17c-.26,0-.49.06-.69.19-.2.13-.35.29-.46.5-.11.2-.17.43-.17.67v.76c0,.32.06.59.17.82.12.23.28.4.49.52.21.12.45.18.73.18.19,0,.36-.03.51-.08.15-.05.28-.13.39-.24.11-.1.2-.23.25-.39l1.2.14c-.08.32-.22.59-.43.83-.21.24-.48.42-.81.55-.33.13-.71.19-1.13.19Z"/>
      <path class="cls-5" d="M101.23,115.81l-1.17.13c-.03-.12-.09-.23-.17-.33-.08-.1-.19-.19-.33-.25-.14-.06-.31-.1-.5-.1-.27,0-.49.06-.67.17-.18.12-.27.27-.27.45,0,.16.06.29.18.39.12.1.32.18.59.25l.93.2c.52.11.9.29,1.15.53s.38.56.38.95c0,.34-.1.65-.3.91-.2.26-.47.47-.82.61-.35.15-.75.22-1.21.22-.67,0-1.21-.14-1.61-.42-.41-.28-.65-.67-.73-1.17l1.25-.12c.06.25.18.43.36.56.18.13.42.19.72.19s.55-.06.74-.19c.19-.12.28-.28.28-.46,0-.16-.06-.29-.18-.39-.12-.1-.3-.18-.56-.23l-.93-.2c-.52-.11-.91-.29-1.16-.55-.25-.26-.38-.59-.37-.99,0-.34.09-.63.28-.88.19-.25.45-.44.78-.58.33-.14.72-.2,1.15-.2.64,0,1.14.14,1.51.41s.6.64.68,1.1Z"/>
    </g>
    <g>
      <path class="cls-4" d="M56.5,42.96c-1.79,0-3.2,1.2-3.2,2.72s1.41,2.7,3.2,2.7c1.79,0,3.2-1.18,3.2-2.7,0-1.52-1.41-2.72-3.2-2.72M56.5,50.21c-2.82,0-5.03-1.98-5.03-4.53,0-2.55,2.21-4.55,5.03-4.55,2.82,0,5.03,2,5.03,4.55s-2.21,4.53-5.03,4.53"/>
      <path class="cls-4" d="M74.48,50.21c-1.01,0-1.83-.84-1.83-1.87v-3.77c0-.9-.78-1.62-1.75-1.62-.95,0-1.73.72-1.73,1.62v5.64c-1.01,0-1.83-.82-1.83-1.83v-3.81c0-.9-.78-1.62-1.75-1.62-.95,0-1.74.72-1.74,1.62v3.79c0,1.01-.82,1.85-1.83,1.85v-5.64c0-1.9,1.6-3.45,3.56-3.45,1.06,0,2.02.44,2.66,1.14.65-.71,1.6-1.14,2.65-1.14,1.98,0,3.58,1.54,3.58,3.45v5.64Z"/>
      <path class="cls-4" d="M80.42,50.2c-.48,0-.93-.04-1.35-.13-.95-.27-1.51-1.26-1.26-2.21.04-.11.07-.23.11-.32l.02-.02c.51.57,1.35.86,2.48.86,1.68,0,2.99-1.18,2.99-2.67s-1.31-2.76-2.99-2.76c-1.58,0-3.16.88-3.16,2.8v5.92c0,.99-.84,1.79-1.83,1.79v-7.71c0-2.67,2.1-4.63,4.99-4.63,1.28,0,2.47.48,3.39,1.31.92.86,1.43,2.02,1.43,3.28,0,2.52-2.11,4.49-4.82,4.49"/>
      <path class="cls-4" d="M93.46,39.4h-3.91s0,10.82,0,10.82h-.08c-.97,0-1.75-.84-1.75-1.83v-8.99s-3.91,0-3.91,0c-.99,0-1.79-.82-1.79-1.81h13.26c0,.99-.8,1.81-1.81,1.81"/>
      <path class="cls-4" d="M105.06,39.47l-2.6,5.71h4.9s-2.62-5.73-2.62-5.73l.31.02ZM109.11,49.07l-.97-2.09h-6.49s-.96,2.15-.96,2.15c-.45.86-1.66,1.12-2.58,1.12l5.29-11.61c.3-.67.83-1.05,1.45-1.05.62,0,1.16.38,1.47,1.05l5.23,11.47c-.98.09-2.06-.2-2.44-1.04"/>
      <path class="cls-4" d="M49.42,41c-.99-1.05-2.44-1.73-4.04-1.73-2.84,0-5.14,2.06-5.14,4.59,0,2.53,2.31,4.61,5.14,4.61,1.35,0,2.63-.51,3.6-1.33.67-.55,1.66-.51,2.31.04-.5.76-1.16,1.43-1.98,1.94-1.16.74-2.52,1.12-3.92,1.12-3.83,0-6.93-2.86-6.93-6.38,0-3.52,3.1-6.38,6.93-6.38,2.72,0,5.2,1.49,6.3,3.77-.7.46-1.68.4-2.27-.25"/>
      <path class="cls-4" d="M95.85,37.59v10.85c0,.97.84,1.77,1.83,1.77v-10.85c0-.97-.84-1.77-1.83-1.77"/>
    </g>
    <g>
      <rect class="cls-2" x="46.45" y="90.57" width="57.09" height="13.5" rx="6.75" ry="6.75"/>
      <g>
        <path class="cls-4" d="M57.45,96.25h-1.2c-.03-.2-.1-.37-.19-.52s-.21-.28-.34-.39c-.14-.11-.29-.19-.47-.24-.17-.05-.36-.08-.56-.08-.36,0-.67.09-.95.27s-.49.44-.65.78-.23.76-.23,1.25.08.92.23,1.26c.16.34.37.6.65.77s.59.26.94.26c.2,0,.38-.03.55-.08.17-.05.33-.13.46-.23.14-.1.25-.23.35-.38.09-.15.16-.32.2-.51h1.2c-.04.32-.14.61-.29.88-.15.27-.34.51-.58.72-.24.21-.52.37-.84.49s-.67.17-1.06.17c-.58,0-1.09-.13-1.54-.4-.45-.27-.81-.65-1.07-1.15-.26-.5-.39-1.11-.39-1.81s.13-1.31.39-1.81c.26-.5.62-.89,1.07-1.15.45-.27.96-.4,1.53-.4.36,0,.7.05,1.02.15.31.1.59.25.84.45.24.2.45.44.61.72.16.28.26.61.31.97Z"/>
        <path class="cls-4" d="M58.72,100.59v-6.55h4.26v.99h-3.07v1.78h2.85v.99h-2.85v1.79h3.1v.99h-4.28Z"/>
        <path class="cls-4" d="M64.37,100.59v-6.55h2.45c.5,0,.93.09,1.27.26.34.17.6.42.78.73s.26.68.26,1.1-.09.78-.27,1.09c-.18.31-.44.55-.79.71-.34.17-.77.25-1.27.25h-1.75v-.98h1.59c.29,0,.54-.04.72-.12s.33-.2.42-.36c.09-.16.13-.35.13-.59s-.04-.43-.14-.6c-.09-.17-.23-.29-.42-.38-.19-.09-.43-.13-.73-.13h-1.09v5.55h-1.19ZM67.75,97.62l1.62,2.97h-1.32l-1.59-2.97h1.29Z"/>
        <path class="cls-4" d="M70.11,95.04v-.99h5.22v.99h-2.02v5.55h-1.18v-5.55h-2.02Z"/>
        <path class="cls-4" d="M77.71,94.04v6.55h-1.19v-6.55h1.19Z"/>
        <path class="cls-4" d="M79.17,100.59v-6.55h4.19v.99h-3.01v1.78h2.72v.99h-2.72v2.78h-1.19Z"/>
        <path class="cls-4" d="M85.81,94.04v6.55h-1.19v-6.55h1.19Z"/>
        <path class="cls-4" d="M87.28,100.59v-6.55h4.26v.99h-3.07v1.78h2.85v.99h-2.85v1.79h3.1v.99h-4.28Z"/>
        <path class="cls-4" d="M95.14,100.59h-2.22v-6.55h2.26c.65,0,1.21.13,1.68.39.47.26.83.64,1.08,1.12.25.49.38,1.07.38,1.75s-.12,1.27-.38,1.76c-.25.49-.62.87-1.09,1.13-.47.26-1.04.39-1.71.39ZM94.11,99.56h.97c.46,0,.84-.08,1.14-.25.3-.17.53-.42.69-.75.15-.33.23-.75.23-1.25s-.08-.92-.23-1.25c-.15-.33-.38-.58-.68-.75s-.67-.25-1.11-.25h-1.01v4.49Z"/>
      </g>
    </g>
    <g>
      <path class="cls-6" d="M40.94,75.51c0,.84-.21,1.57-.62,2.2s-1.01,1.11-1.79,1.45c-.78.34-1.73.51-2.85.51-.49,0-.98-.03-1.45-.1s-.93-.16-1.36-.29c-.43-.13-.84-.28-1.23-.47v-2.82c.68.29,1.38.56,2.11.81.73.25,1.45.37,2.17.37.49,0,.89-.07,1.19-.2.3-.13.52-.31.66-.54.14-.23.21-.49.21-.78,0-.36-.12-.67-.37-.92-.25-.25-.58-.49-.99-.71-.41-.22-.89-.46-1.42-.71-.33-.16-.69-.35-1.08-.57-.39-.22-.76-.49-1.11-.82s-.64-.72-.87-1.19-.34-1.03-.34-1.68c0-.85.2-1.58.59-2.19.39-.61.95-1.07,1.68-1.39s1.58-.48,2.57-.48c.75,0,1.46.09,2.13.26.67.17,1.38.42,2.11.74l-.98,2.36c-.65-.27-1.24-.47-1.76-.62-.52-.15-1.05-.22-1.6-.22-.37,0-.69.06-.96.18-.27.12-.47.29-.61.5-.14.21-.21.47-.21.76,0,.33.1.62.3.85s.5.46.9.67c.4.21.9.47,1.5.76.73.35,1.36.71,1.87,1.08.51.37.91.81,1.19,1.32s.42,1.13.42,1.88Z"/>
      <path class="cls-6" d="M47.36,68.35c1.01,0,1.88.19,2.61.58s1.29.95,1.69,1.68c.4.73.6,1.63.6,2.7v1.44h-7.04c.03.84.28,1.5.75,1.98s1.13.72,1.97.72c.71,0,1.35-.07,1.92-.21.57-.14,1.17-.36,1.78-.65v2.3c-.53.27-1.1.46-1.69.59-.59.13-1.31.19-2.15.19-1.09,0-2.06-.2-2.9-.61-.84-.41-1.5-1.02-1.98-1.85-.48-.83-.72-1.87-.72-3.12s.22-2.34.65-3.19c.43-.85,1.04-1.48,1.81-1.91.77-.43,1.67-.64,2.7-.64ZM47.38,70.47c-.57,0-1.05.19-1.43.56-.38.37-.6.95-.67,1.74h4.18c0-.44-.08-.83-.23-1.18s-.38-.62-.69-.82-.69-.3-1.16-.3Z"/>
      <path class="cls-6" d="M58.68,79.67c-1.08,0-2-.2-2.76-.59-.76-.39-1.34-1-1.74-1.83-.4-.83-.6-1.89-.6-3.18s.23-2.42.68-3.26,1.08-1.46,1.89-1.86c.81-.4,1.74-.6,2.79-.6.75,0,1.4.07,1.95.22.55.15,1.04.32,1.45.52l-.88,2.3c-.47-.19-.9-.34-1.31-.46-.41-.12-.81-.18-1.21-.18-.52,0-.95.12-1.3.37-.35.25-.6.61-.77,1.1-.17.49-.25,1.1-.25,1.83s.09,1.32.27,1.79.44.83.79,1.06c.35.23.77.35,1.26.35.63,0,1.18-.08,1.66-.25.48-.17.95-.4,1.4-.69v2.54c-.45.29-.93.5-1.43.63s-1.13.19-1.89.19Z"/>
      <path class="cls-6" d="M74.1,68.55v10.92h-2.28l-.4-1.4h-.16c-.23.37-.52.68-.87.91-.35.23-.74.41-1.17.52-.43.11-.87.17-1.32.17-.77,0-1.45-.14-2.04-.42-.59-.28-1.04-.71-1.36-1.3-.32-.59-.48-1.35-.48-2.28v-7.12h2.98v6.38c0,.77.14,1.36.42,1.76.28.4.73.6,1.34.6s1.09-.14,1.43-.42c.34-.28.58-.69.72-1.22.14-.53.21-1.19.21-1.96v-5.14h2.98Z"/>
      <path class="cls-6" d="M82.02,68.35c.15,0,.32,0,.52.02.2.01.36.03.48.06l-.22,2.8c-.09-.03-.23-.05-.41-.07-.18-.02-.34-.03-.47-.03-.39,0-.76.05-1.12.15-.36.1-.68.26-.97.47-.29.21-.51.5-.68.85-.17.35-.25.79-.25,1.31v5.56h-2.98v-10.92h2.26l.44,1.84h.14c.21-.37.48-.71.8-1.02.32-.31.69-.55,1.11-.74.42-.19.87-.28,1.35-.28Z"/>
      <path class="cls-6" d="M86.06,64.27c.44,0,.82.1,1.14.31.32.21.48.59.48,1.15s-.16.93-.48,1.14c-.32.21-.7.32-1.14.32s-.84-.11-1.15-.32c-.31-.21-.47-.59-.47-1.14s.16-.94.47-1.15c.31-.21.7-.31,1.15-.31ZM87.54,68.55v10.92h-2.98v-10.92h2.98Z"/>
      <path class="cls-6" d="M94.82,77.29c.33,0,.65-.03.96-.1.31-.07.61-.15.92-.24v2.22c-.32.13-.72.25-1.19.35-.47.1-.99.15-1.55.15-.65,0-1.24-.11-1.75-.32-.51-.21-.92-.58-1.22-1.11-.3-.53-.45-1.26-.45-2.19v-5.26h-1.42v-1.26l1.64-1,.86-2.3h1.9v2.32h3.06v2.24h-3.06v5.26c0,.41.12.72.36.93.24.21.55.31.94.31Z"/>
      <path class="cls-6" d="M97.34,68.55h3.26l2.06,6.14c.07.2.12.4.17.6.05.2.09.41.12.62.03.21.06.44.07.68h.06c.04-.35.1-.68.17-.99s.16-.62.25-.91l2.02-6.14h3.2l-4.62,12.32c-.28.75-.64,1.37-1.09,1.88-.45.51-.96.89-1.55,1.14s-1.23.38-1.92.38c-.33,0-.62-.02-.87-.05-.25-.03-.46-.07-.65-.11v-2.36c.15.03.32.05.53.08.21.03.42.04.65.04.41,0,.77-.09,1.07-.26.3-.17.55-.41.75-.71.2-.3.36-.62.48-.97l.18-.54-4.34-10.84Z"/>
      <path class="cls-6" d="M115.06,71.35h3.78v2.14h-3.78v3.76h-2.14v-3.76h-3.78v-2.14h3.78v-3.8h2.14v3.8Z"/>
    </g>
  </g>
</svg>